<svg viewBox="0 0 64 64" xmlns="http://www.w3.org/2000/svg">
  <!-- Background circle -->
  <circle cx="32" cy="32" r="32" fill="#C3261B" opacity="0.1"/>
  
  <!-- Document shape -->
  <path d="M 16 12 L 48 12 Q 50 12 50 14 L 50 52 Q 50 54 48 54 L 16 54 Q 14 54 14 52 L 14 14 Q 14 12 16 12 Z" fill="#C3261B"/>
  
  <!-- Inner document white -->
  <path d="M 18 14 L 46 14 Q 48 14 48 16 L 48 50 Q 48 52 46 52 L 18 52 Q 16 52 16 50 L 16 16 Q 16 14 18 14 Z" fill="#FFFFFF"/>
  
  <!-- Document lines representing text -->
  <line x1="22" y1="24" x2="42" y2="24" stroke="#C3261B" stroke-width="1.5" stroke-linecap="round"/>
  <line x1="22" y1="30" x2="42" y2="30" stroke="#C3261B" stroke-width="1.5" stroke-linecap="round"/>
  <line x1="22" y1="36" x2="42" y2="36" stroke="#C3261B" stroke-width="1.5" stroke-linecap="round"/>
  <line x1="22" y1="42" x2="35" y2="42" stroke="#C3261B" stroke-width="1.5" stroke-linecap="round"/>
  
  <!-- Checkmark symbol (for quality assurance) -->
  <path d="M 38 40 L 42 44 L 46 36" stroke="#22C55E" stroke-width="2.5" fill="none" stroke-linecap="round" stroke-linejoin="round"/>
</svg>
